<svg width="212" height="40" viewBox="0 0 212 40" fill="none" xmlns="http://www.w3.org/2000/svg">
<path d="M25.8864 0.31638L21.3093 8.04073C21.1891 8.24361 21.1892 8.49563 21.3093 8.69851L22.052 9.95193L21.6752 10.1504C21.1049 9.45392 20.103 9.22918 19.2763 9.6644L16.8023 10.9665C16.3446 11.2074 16.0084 11.6119 15.8553 12.1057C15.7417 12.4726 15.739 12.8563 15.8439 13.2168L15.1007 13.608L14.1174 11.9478C14.0012 11.7516 13.7902 11.6313 13.5623 11.6313L5.22242 11.6313C4.99454 11.6313 4.78348 11.7515 4.66734 11.9476L0.0902135 19.672C-0.0299166 19.8748 -0.029915 20.1269 0.0902177 20.3298L4.66744 28.054C4.78358 28.2502 4.99465 28.3703 5.22252 28.3703L13.5624 28.3703C13.7903 28.3703 14.0013 28.2499 14.1175 28.0538L15.1007 26.3935L15.8439 26.7847C15.7388 27.1454 15.7413 27.5292 15.8554 27.8958C16.0085 28.3896 16.3448 28.7941 16.8024 29.0352L19.2764 30.3369C20.1031 30.7723 21.105 30.5475 21.6753 29.8511L22.0522 30.0495L21.3094 31.3029C21.1893 31.5058 21.1893 31.7578 21.3094 31.9607L25.8867 39.685C26.0028 39.8812 26.2139 40.0013 26.4417 40.0013L34.7816 40.0012C35.0095 40.0012 35.2206 39.8809 35.3367 39.6847L39.9113 31.9604C39.9714 31.8592 40.0014 31.7453 40.0014 31.6317C40.0014 31.5181 39.9714 31.4043 39.9113 31.303L35.3366 23.5787C35.2205 23.3826 35.0094 23.2622 34.7815 23.2622L33.5409 23.2623L33.5409 22.2094C34.4975 21.9305 35.1984 21.046 35.1984 20.0006C35.1984 18.9553 34.4974 18.0707 33.5409 17.7919L33.5409 16.739L34.7815 16.739C35.0093 16.739 35.2204 16.6187 35.3366 16.4225L39.9112 8.69818C39.9712 8.59695 40.0013 8.48312 40.0013 8.3695C40.0013 8.25588 39.9712 8.14205 39.9112 8.04082L35.3365 0.316528C35.2203 0.120369 35.0092 3.12196e-05 34.7814 3.26675e-05L26.4415 8.56613e-05C26.2136 8.71092e-05 26.0025 0.120219 25.8864 0.31638ZM22.6143 8.36961L26.4413 1.91095L30.2664 8.36956L26.4414 14.8282L23.8538 10.4614L26.7402 8.94105C26.9597 8.82554 27.085 8.60144 27.085 8.36958C27.085 8.26835 27.0611 8.16544 27.0105 8.06967C26.8446 7.75443 26.4543 7.63325 26.1391 7.79938L23.1952 9.34984L22.6143 8.36961ZM17.0875 12.4881C17.1387 12.3235 17.2509 12.1886 17.4034 12.1084L19.8774 10.8063C20.0299 10.726 20.2046 10.7099 20.369 10.7609C20.5337 10.8122 20.6685 10.9243 20.749 11.0768L20.9867 11.5287C21.0665 11.681 21.0829 11.8555 21.0321 12.0204C20.9808 12.185 20.8687 12.3199 20.7162 12.4001L18.2422 13.7022C18.0897 13.7825 17.915 13.7987 17.7505 13.7476C17.5859 13.6964 17.451 13.5842 17.3708 13.432L17.1329 12.9798C17.0835 12.8857 17.0583 12.7832 17.0583 12.6799C17.0583 12.6158 17.068 12.5511 17.0875 12.4881ZM13.9574 14.2096L11.3773 15.5675C11.0623 15.733 10.9404 16.1232 11.107 16.4389C11.2729 16.7541 11.6631 16.8753 11.9784 16.7091L14.6158 15.3213L17.0051 19.3556L10.1648 19.3556L6.35427 12.9217L13.1946 12.9216L13.9574 14.2096ZM1.39528 20.0009L5.22227 13.5422L9.04735 20.0008L5.22235 26.4595L1.39528 20.0009ZM13.1947 27.0799L6.35436 27.08L10.1648 20.646L17.0051 20.6459L14.6158 24.6803L11.9784 23.2924C11.6632 23.1263 11.273 23.2475 11.107 23.5627C10.9403 23.8786 11.0621 24.2682 11.3773 24.4341L13.9575 25.7919L13.1947 27.0799ZM19.8775 29.195L17.4035 27.8933C17.251 27.8129 17.1388 27.678 17.0876 27.5134C17.0372 27.3489 17.0529 27.1744 17.1332 27.0215L17.3707 26.5697C17.5366 26.2549 17.9274 26.1335 18.2423 26.299L20.7163 27.6011C20.8688 27.6816 20.9809 27.8164 21.0322 27.9811C21.0836 28.1453 21.0673 28.3196 20.9866 28.4729L20.7491 28.9247C20.6686 29.0772 20.5338 29.1893 20.3692 29.2406C20.2047 29.2916 20.03 29.2754 19.8775 29.195ZM22.6145 31.6318L23.1953 30.6516L26.1393 32.202C26.4545 32.3681 26.8447 32.2469 27.0106 31.9317C27.0612 31.8359 27.0852 31.733 27.0852 31.6318C27.0852 31.3999 26.9598 31.1758 26.7403 31.0603L23.854 29.54L26.4415 25.1732L30.2666 31.6318L26.4416 38.0904L22.6145 31.6318ZM27.5736 38.7109L31.384 32.2769L38.2243 32.2769L34.4139 38.7109L27.5736 38.7109ZM34.4138 24.5526L38.2243 30.9865L31.384 30.9866L27.5735 24.5527L32.2506 24.5526L32.2506 28.3407C32.2506 28.6972 32.5394 28.9859 32.8958 28.9859C33.2522 28.9859 33.541 28.6971 33.541 28.3407L33.5409 24.5526L34.4138 24.5526ZM33.908 20.0006C33.908 20.5576 33.4548 21.0106 32.8978 21.0106C32.3409 21.0106 31.8878 20.5576 31.8878 20.0007C31.8878 19.4437 32.3409 18.9907 32.8978 18.9907C33.4548 18.9907 33.908 19.4437 33.908 20.0006ZM32.2505 17.7931C31.2962 18.0734 30.5975 18.9568 30.5975 20.0007C30.5975 21.0445 31.2963 21.9279 32.2506 22.2082L32.2506 23.2623L26.4416 23.2623C26.2138 23.2623 26.0027 23.3824 25.8866 23.5786L22.7108 28.9379L22.2755 28.7086C22.3263 28.5328 22.3511 28.3534 22.3511 28.1753C22.3511 27.4793 21.975 26.8056 21.3174 26.4595L18.8431 25.1571C18.0168 24.7225 17.0154 24.947 16.4449 25.6428L15.7591 25.2819L18.6921 20.3294C18.7522 20.2282 18.7822 20.1144 18.7822 20.0007C18.7822 19.8871 18.7522 19.7733 18.6921 19.6721L15.759 14.7197L16.4446 14.3589C16.6825 14.6503 17.0006 14.8659 17.3681 14.98C17.8619 15.1331 18.3858 15.0848 18.8433 14.8441L21.3173 13.542C21.9751 13.1959 22.351 12.5221 22.351 11.8259C22.351 11.648 22.3262 11.4686 22.2754 11.2928L22.7107 11.0635L25.8865 16.4228C26.0026 16.619 26.2137 16.7391 26.4416 16.7391L32.2505 16.739L32.2505 17.7931ZM33.5409 15.4487L33.5409 11.6605C33.5409 11.3041 33.2521 11.0154 32.8957 11.0154C32.5393 11.0154 32.2505 11.3042 32.2505 11.6606L32.2505 15.4487L27.5734 15.4487L31.3838 9.01473L38.2242 9.01469L34.4137 15.4487L33.5409 15.4487ZM38.2242 7.72433L31.3838 7.72437L27.5733 1.29044L34.4136 1.2904L38.2242 7.72433Z" fill="url(#paint0_radial_5016_170)"/>
<path d="M41.2834 27.1827L41.2834 11.8024L54.1002 11.8024C54.5702 11.8024 54.9974 11.9164 55.3819 12.1442C55.7807 12.3721 56.094 12.6854 56.3218 13.0841C56.5497 13.4686 56.6636 13.8959 56.6636 14.3658L56.6636 24.6193C56.6636 25.0893 56.5497 25.5236 56.3218 25.9224C56.094 26.3069 55.7807 26.6131 55.3819 26.8409C54.9974 27.0688 54.5702 27.1827 54.1002 27.1827L41.2834 27.1827ZM43.8467 25.4524L54.1002 25.4524C54.3281 25.4524 54.5203 25.3741 54.677 25.2174C54.8479 25.0466 54.9333 24.8472 54.9333 24.6193L54.9333 14.3658C54.9333 14.138 54.8479 13.9457 54.677 13.7891C54.5203 13.6182 54.3281 13.5327 54.1002 13.5327L43.8467 13.5327C43.6189 13.5327 43.4195 13.6182 43.2486 13.7891C43.092 13.9457 43.0136 14.138 43.0136 14.3658L43.0136 24.6193C43.0136 24.8472 43.092 25.0466 43.2486 25.2174C43.4195 25.3741 43.6189 25.4524 43.8467 25.4524Z" fill="white"/>
<path d="M61.5337 27.1827C61.0637 27.1827 60.6294 27.0688 60.2306 26.8409C59.8461 26.5988 59.5328 26.2855 59.2907 25.901C59.0629 25.5023 58.9489 25.0679 58.9489 24.598L58.9489 17.3778C58.9489 16.9078 59.0629 16.4806 59.2907 16.0961C59.5328 15.6974 59.8461 15.3841 60.2306 15.1562C60.6294 14.9141 61.0637 14.7931 61.5337 14.7931L68.9675 14.7931C69.4517 14.7931 69.886 14.9141 70.2705 15.1562C70.6693 15.3841 70.9826 15.6974 71.2104 16.0961C71.4525 16.4806 71.5736 16.9078 71.5736 17.3778L71.5736 21.8637L60.7006 21.8637L60.7006 24.598C60.7006 24.8258 60.7789 25.0252 60.9356 25.1961C61.1065 25.3527 61.3058 25.4311 61.5337 25.4311L71.5736 25.4311L71.5736 27.1827L61.5337 27.1827ZM60.7006 20.1121L69.8006 20.1121L69.8006 17.3778C69.8006 17.1499 69.7151 16.9577 69.5442 16.801C69.3876 16.6301 69.1953 16.5447 68.9675 16.5447L61.5337 16.5447C61.3058 16.5447 61.1065 16.6301 60.9356 16.801C60.7789 16.9577 60.7006 17.1499 60.7006 17.3778L60.7006 20.1121Z" fill="white"/>
<path d="M75.9068 27.1827C75.4368 27.1827 75.0025 27.0688 74.6037 26.8409C74.2192 26.5988 73.9059 26.2855 73.6638 25.901C73.436 25.5023 73.322 25.0679 73.322 24.598L73.322 17.3778C73.322 16.9078 73.436 16.4806 73.6638 16.0961C73.9059 15.6974 74.2192 15.3841 74.6037 15.1562C75.0025 14.9141 75.4368 14.7931 75.9068 14.7931L85.9039 14.7931L85.9039 16.5447L75.9068 16.5447C75.6789 16.5447 75.4795 16.6301 75.3087 16.801C75.152 16.9577 75.0737 17.1499 75.0737 17.3778L75.0737 24.598C75.0737 24.8258 75.152 25.0252 75.3087 25.1961C75.4795 25.3527 75.6789 25.4311 75.9068 25.4311L85.9467 25.4311L85.9467 27.1827L75.9068 27.1827Z" fill="white"/>
<path d="M90.2173 27.1827C89.7473 27.1827 89.313 27.0688 88.9142 26.8409C88.5297 26.5988 88.2164 26.2855 87.9743 25.901C87.7465 25.5023 87.6325 25.0679 87.6325 24.598L87.6325 17.3778C87.6325 16.9078 87.7465 16.4806 87.9743 16.0961C88.2164 15.6974 88.5297 15.3841 88.9142 15.1562C89.313 14.9141 89.7473 14.7931 90.2173 14.7931L97.6511 14.7931C98.1353 14.7931 98.5696 14.9141 98.9541 15.1562C99.3529 15.3841 99.6662 15.6974 99.894 16.0961C100.136 16.4806 100.257 16.9078 100.257 17.3778L100.257 21.8637L89.3842 21.8637L89.3842 24.598C89.3842 24.8258 89.4625 25.0252 89.6192 25.1961C89.7901 25.3527 89.9894 25.4311 90.2173 25.4311L100.257 25.4311L100.257 27.1827L90.2173 27.1827ZM89.3842 20.1121L98.4842 20.1121L98.4842 17.3778C98.4842 17.1499 98.3987 16.9577 98.2278 16.801C98.0712 16.6301 97.8789 16.5447 97.6511 16.5447L90.2173 16.5447C89.9894 16.5447 89.7901 16.6301 89.6192 16.801C89.4625 16.9577 89.3842 17.1499 89.3842 17.3778L89.3842 20.1121Z" fill="white"/>
<path d="M102.487 27.1827L102.487 14.7931L112.527 14.7931C112.997 14.7931 113.424 14.9141 113.809 15.1562C114.207 15.3841 114.521 15.6974 114.748 16.0961C114.991 16.4806 115.112 16.9078 115.112 17.3778L115.112 27.1827L113.36 27.1827L113.36 17.3778C113.36 17.1499 113.274 16.9577 113.104 16.801C112.947 16.6301 112.755 16.5447 112.527 16.5447L105.093 16.5447C104.865 16.5447 104.666 16.6301 104.495 16.801C104.324 16.9577 104.239 17.1499 104.239 17.3778L104.239 27.1827L102.487 27.1827Z" fill="white"/>
<path d="M119.924 27.1827C119.44 27.1827 118.998 27.0688 118.6 26.8409C118.215 26.5988 117.909 26.2855 117.681 25.901C117.453 25.5023 117.339 25.0679 117.339 24.598L117.339 10.7344L119.091 10.7344L119.091 14.7931L124.453 14.7931L124.453 16.5447L119.091 16.5447L119.091 24.598C119.091 24.8258 119.169 25.0252 119.326 25.1961C119.497 25.3527 119.696 25.4311 119.924 25.4311L124.453 25.4311L124.453 27.1827L119.924 27.1827Z" fill="white"/>
<path d="M126.08 27.1827L126.08 17.3778C126.08 16.9078 126.193 16.4806 126.421 16.0961C126.663 15.6974 126.977 15.3841 127.361 15.1562C127.76 14.9141 128.194 14.7931 128.664 14.7931L135.628 14.7931L135.628 16.5447L128.664 16.5447C128.436 16.5447 128.237 16.6301 128.066 16.801C127.909 16.9577 127.831 17.1499 127.831 17.3778L127.831 27.1827L126.08 27.1827Z" fill="white"/>
<path d="M139.595 27.1827C139.125 27.1827 138.691 27.0688 138.292 26.8409C137.908 26.5988 137.594 26.2855 137.352 25.901C137.124 25.5023 137.011 25.0679 137.011 24.598L137.011 20.1121L147.862 20.1121L147.862 17.3778C147.862 17.1499 147.777 16.9577 147.606 16.801C147.449 16.6301 147.257 16.5447 147.029 16.5447L137.011 16.5447L137.011 14.7931L147.029 14.7931C147.513 14.7931 147.948 14.9141 148.332 15.1562C148.731 15.3841 149.044 15.6974 149.272 16.0961C149.514 16.4806 149.635 16.9078 149.635 17.3778L149.635 27.1827L139.595 27.1827ZM139.595 25.4311L147.862 25.4311L147.862 21.8637L138.762 21.8637L138.762 24.598C138.762 24.8258 138.841 25.0252 138.997 25.1961C139.168 25.3527 139.367 25.4311 139.595 25.4311Z" fill="white"/>
<path d="M154.219 27.1827C153.749 27.1827 153.314 27.0688 152.916 26.8409C152.531 26.5988 152.218 26.2855 151.976 25.901C151.748 25.5023 151.634 25.0679 151.634 24.598L151.634 10.7344L153.386 10.7344L153.386 24.598C153.386 24.8258 153.464 25.0252 153.621 25.1961C153.791 25.3527 153.991 25.4311 154.219 25.4311L156.312 25.4311L156.312 27.1827L154.219 27.1827Z" fill="white"/>
<path d="M160.622 27.1827C160.152 27.1827 159.718 27.0688 159.319 26.8409C158.934 26.6131 158.628 26.3069 158.4 25.9224C158.173 25.5236 158.059 25.0893 158.059 24.6193L158.059 24.0212L159.789 24.0212L159.789 24.6193C159.789 24.8472 159.867 25.0466 160.024 25.2174C160.195 25.3741 160.394 25.4524 160.622 25.4524L170.875 25.4524C171.103 25.4524 171.296 25.3741 171.452 25.2174C171.623 25.0466 171.709 24.8472 171.709 24.6193L171.709 21.1801C171.709 20.9523 171.623 20.76 171.452 20.6034C171.296 20.4467 171.103 20.3684 170.875 20.3684L160.622 20.3684C160.152 20.3684 159.718 20.2545 159.319 20.0266C158.934 19.7845 158.628 19.4712 158.4 19.0867C158.173 18.7022 158.059 18.275 158.059 17.805L158.059 14.3658C158.059 13.8959 158.173 13.4686 158.4 13.0841C158.628 12.6854 158.934 12.3721 159.319 12.1442C159.718 11.9164 160.152 11.8025 160.622 11.8025L170.875 11.8025C171.345 11.8025 171.773 11.9164 172.157 12.1442C172.556 12.3721 172.869 12.6854 173.097 13.0841C173.325 13.4686 173.439 13.8959 173.439 14.3658L173.439 14.9639L171.709 14.9639L171.709 14.3658C171.709 14.138 171.623 13.9457 171.452 13.7891C171.296 13.6182 171.103 13.5327 170.875 13.5327L160.622 13.5327C160.394 13.5327 160.195 13.6182 160.024 13.7891C159.867 13.9457 159.789 14.138 159.789 14.3658L159.789 17.805C159.789 18.0329 159.867 18.2251 160.024 18.3818C160.195 18.5384 160.394 18.6168 160.622 18.6168L170.875 18.6168C171.345 18.6168 171.773 18.7378 172.157 18.9799C172.556 19.2078 172.869 19.5139 173.097 19.8984C173.325 20.2829 173.439 20.7102 173.439 21.1801L173.439 24.6193C173.439 25.0893 173.325 25.5236 173.097 25.9224C172.869 26.3069 172.556 26.6131 172.157 26.8409C171.773 27.0688 171.345 27.1827 170.875 27.1827L160.622 27.1827Z" fill="white"/>
<path d="M175.687 32.0958L175.687 14.7931L185.727 14.7931C186.197 14.7931 186.625 14.9141 187.009 15.1562C187.408 15.3841 187.721 15.6974 187.949 16.0961C188.191 16.4806 188.312 16.9078 188.312 17.3778L188.312 24.598C188.312 25.0679 188.191 25.5023 187.949 25.901C187.721 26.2855 187.408 26.5988 187.009 26.8409C186.625 27.0688 186.197 27.1827 185.727 27.1827L177.439 27.1827L177.439 32.0958L175.687 32.0958ZM178.294 25.4311L185.727 25.4311C185.955 25.4311 186.147 25.3527 186.304 25.1961C186.475 25.0252 186.56 24.8258 186.56 24.598L186.56 17.3778C186.56 17.1499 186.475 16.9577 186.304 16.801C186.147 16.6301 185.955 16.5447 185.727 16.5447L178.294 16.5447C178.066 16.5447 177.866 16.6301 177.695 16.801C177.525 16.9577 177.439 17.1499 177.439 17.3778L177.439 24.598C177.439 24.8258 177.525 25.0252 177.695 25.1961C177.866 25.3527 178.066 25.4311 178.294 25.4311Z" fill="white"/>
<path d="M192.393 27.1827C191.924 27.1827 191.489 27.0688 191.09 26.8409C190.706 26.5988 190.393 26.2855 190.151 25.901C189.923 25.5023 189.809 25.0679 189.809 24.598L189.809 17.3778C189.809 16.9078 189.923 16.4806 190.151 16.0961C190.393 15.6974 190.706 15.3841 191.09 15.1562C191.489 14.9141 191.924 14.7931 192.393 14.7931L199.827 14.7931C200.311 14.7931 200.746 14.9141 201.13 15.1562C201.529 15.3841 201.842 15.6974 202.07 16.0961C202.312 16.4806 202.433 16.9078 202.433 17.3778L202.433 24.598C202.433 25.0679 202.312 25.5023 202.07 25.901C201.842 26.2855 201.529 26.5988 201.13 26.8409C200.746 27.0688 200.311 27.1827 199.827 27.1827L192.393 27.1827ZM192.393 25.4311L199.827 25.4311C200.055 25.4311 200.247 25.3527 200.404 25.1961C200.575 25.0252 200.66 24.8258 200.66 24.598L200.66 17.3778C200.66 17.1499 200.575 16.9577 200.404 16.801C200.247 16.6301 200.055 16.5447 199.827 16.5447L192.393 16.5447C192.166 16.5447 191.966 16.6301 191.795 16.801C191.639 16.9577 191.56 17.1499 191.56 17.3778L191.56 24.598C191.56 24.8258 191.639 25.0252 191.795 25.1961C191.966 25.3527 192.166 25.4311 192.393 25.4311Z" fill="white"/>
<path d="M206.726 27.1827C206.242 27.1827 205.8 27.0688 205.401 26.8409C205.017 26.5988 204.711 26.2855 204.483 25.901C204.255 25.5023 204.141 25.0679 204.141 24.598L204.141 10.7344L205.893 10.7344L205.893 14.7931L211.254 14.7931L211.254 16.5447L205.893 16.5447L205.893 24.598C205.893 24.8258 205.971 25.0252 206.128 25.1961C206.299 25.3527 206.498 25.4311 206.726 25.4311L211.254 25.4311L211.254 27.1827L206.726 27.1827Z" fill="white"/>
<defs>
<radialGradient id="paint0_radial_5016_170" cx="0" cy="0" r="1" gradientUnits="userSpaceOnUse" gradientTransform="translate(20.0007 20.0007) rotate(-90.0004) scale(20.0006)">
<stop stop-color="#FFA704"/>
<stop offset="0.69" stop-color="#8C3C03"/>
</radialGradient>
</defs>
</svg>
